<svg xmlns="http://www.w3.org/2000/svg" xmlns:xlink="http://www.w3.org/1999/xlink" version="1.1" id="Layer_1" x="0px" y="0px" width="100%" viewBox="0 0 512 512" enable-background="new 0 0 512 512" xml:space="preserve">
<path fill="black" opacity="1.000000" stroke="none" d=" M408.081665,327.226288   C415.315063,348.226105 409.703064,365.853241 394.965088,380.737732   C396.902954,384.134644 399.753479,384.441071 402.149017,385.321228   C412.010162,388.944641 421.668457,393.015961 430.984253,397.876434   C436.224030,400.610229 436.358856,401.228058 432.357269,405.275269   C413.419373,424.429260 392.265198,440.850006 369.922577,455.802399   C368.153839,456.986115 366.253143,457.135864 364.209045,457.134460   C292.065033,457.085510 219.920990,457.061707 147.776962,457.070801   C145.884933,457.071045 144.162308,456.856323 142.552429,455.797974   C119.631714,440.729279 98.858253,423.051666 79.368362,403.814972   C79.154770,403.604156 79.117188,403.214996 78.627586,401.964233   C91.404549,392.929840 106.241791,387.788513 121.556618,381.924957   C112.761307,369.781555 104.646973,357.744354 106.510017,340.743927   C93.076370,346.892090 83.354713,354.850830 75.595734,365.204865   C67.412766,376.124756 66.583168,388.296295 70.379341,401.216522   C63.530674,393.731262 60.007217,385.230927 62.230721,375.295502   C65.518433,360.604736 75.595551,350.710754 86.991882,341.909607   C87.650383,341.401062 88.324417,340.896698 89.047089,340.489563   C99.415855,334.648285 109.174614,328.285034 111.110268,315.113892   C118.517136,307.910492 115.898750,300.764130 111.718636,292.954590   C103.773872,278.111755 100.412926,262.130219 101.617340,245.221222   C102.157875,237.632584 103.399925,230.326523 107.953392,224.019394   C109.608208,221.727280 110.029381,219.094574 110.460686,216.523712   C120.770111,155.072540 174.884995,100.992012 239.073929,90.841278   C299.595520,81.270462 359.935242,109.163872 392.103149,161.656418   C401.811584,177.498932 407.604736,194.723236 408.406097,213.471573   C408.604370,218.110413 409.470459,222.573669 411.604462,226.924438   C416.297577,236.492798 416.062958,246.905792 415.786469,257.257294   C415.364349,273.063477 408.817810,286.907501 401.948730,300.651367   C401.129730,302.290070 400.363220,303.974121 399.361237,305.498413   C397.150848,308.861053 397.057800,311.634705 400.319794,314.648560   C403.893555,317.950562 406.137146,322.323944 408.081665,327.226288  M384.575012,313.647980   C399.533966,292.457855 408.803223,269.363007 407.470551,242.965668   C407.207672,237.758148 406.795563,232.182816 403.414703,227.736801   C401.474792,225.185715 400.917145,222.486984 400.630829,219.425888   C399.681061,209.271042 397.446167,199.395737 393.697144,189.206833   C392.998413,191.182373 393.683136,192.210190 394.006561,193.292725   C402.480804,221.656540 402.038025,250.403091 397.257111,279.225952   C395.201416,291.619080 390.162292,303.070068 383.465271,314.398926   C342.981567,366.610199 287.436981,377.315552 225.111008,371.668823   C226.569839,372.107239 227.305954,372.427277 228.073059,372.544647   C251.694962,376.158966 275.130402,375.077026 298.505615,370.210114   C325.596649,364.569489 349.499847,352.982330 368.931091,333.041473   C374.570862,327.253784 380.756317,321.754333 384.575012,313.647980  M338.937134,157.543533   C334.514679,151.808548 329.185089,147.027084 323.101440,143.167496   C296.987213,126.600136 268.233002,123.826706 238.483414,127.908089   C216.440659,130.932159 196.009155,138.842285 177.163513,150.756577   C175.414520,151.862320 173.766541,153.530502 171.367401,152.990692   C169.891846,151.271149 171.761963,148.934952 170.195114,147.315475   C143.404770,156.037064 117.960358,227.528503 128.154633,266.108459   C134.050781,262.977448 139.848663,259.846313 146.065674,257.558289   C178.525009,245.612396 212.396286,240.817001 246.576630,237.770691   C267.840790,235.875534 289.194733,236.662109 310.513031,236.725433   C323.844330,236.765045 337.073120,238.158783 350.212891,240.419052   C352.668823,240.841522 355.171051,240.987717 357.642273,241.330688   C359.908752,241.645248 362.162262,242.053360 364.421448,242.420258   C364.405731,241.816483 364.390045,241.212708 364.374329,240.608932   C284.008148,228.284363 204.786728,229.357971 128.183731,262.198273   C127.881027,258.809021 130.553818,257.826996 132.471970,256.496674   C134.794907,254.885590 135.614258,252.977356 135.388687,250.171646   C134.207718,235.481461 136.631485,221.294632 142.016632,207.641449   C152.097473,182.083252 168.908737,162.284439 192.993668,148.848267   C194.394363,148.066864 195.829758,146.769211 198.586044,147.670929   C175.471786,162.128891 157.920425,180.531357 147.902451,205.401566   C165.740662,178.553207 174.473938,168.653748 182.390350,167.146133   C179.262177,168.476227 181.661880,171.798126 179.795822,173.484650   C174.600647,178.179993 173.893250,185.388870 169.942245,190.806427   C167.549484,194.087372 170.605530,196.918137 171.236130,200.207291   C169.502594,202.045868 165.776871,202.384857 164.684113,206.235138   C170.073395,205.738953 174.248001,201.893478 180.347900,202.585587   C176.800964,205.306625 172.579712,204.939667 170.068085,207.757355   C171.056961,209.272263 173.323288,207.758270 173.919113,209.890915   C170.491867,212.356079 165.988083,211.766418 162.135391,213.782089   C166.108063,214.870239 169.585938,211.772293 173.965744,213.169266   C169.852951,216.469345 164.285858,215.980667 161.195862,220.230774   C165.299255,221.658371 168.362000,217.535751 172.617538,219.338547   C168.330978,221.988419 163.307953,222.219406 159.920578,225.948929   C162.928223,227.631454 165.762955,224.504181 168.729156,225.907257   C166.930359,228.623322 162.163544,227.066467 160.903687,231.524261   C164.948135,230.956940 168.456924,230.464767 172.533279,229.892975   C170.780869,233.242996 167.801270,232.294373 165.689011,233.109695   C163.706619,233.874878 161.653534,235.924500 162.382828,236.667267   C165.031494,239.364883 162.135254,240.508926 160.662750,242.974014   C228.383972,224.633698 296.027374,223.915222 364.810577,233.833725   C363.948303,205.602798 356.068604,180.400116 338.937134,157.543533  M295.384949,301.411560   C291.799469,301.452515 288.876251,304.923981 283.598511,303.783234   C290.287842,300.244568 296.289978,298.351929 301.862457,294.542877   C283.770569,292.792328 221.226807,319.867340 217.345001,331.024872   C222.250076,330.860291 226.030136,326.963501 231.146896,326.978821   C229.573624,330.985748 224.438721,330.131500 222.738358,333.818970   C225.726425,335.487122 228.341797,332.294708 231.030579,333.768646   C230.478973,335.827240 227.369690,335.982330 227.867859,338.759186   C232.134430,339.295044 235.755630,335.999298 240.325317,336.162933   C238.682617,339.562927 234.140213,338.537689 232.849762,342.001587   C236.571213,344.141907 239.672684,339.601349 243.894119,341.390259   C241.527496,342.683258 239.723923,343.668610 237.798935,344.720306   C240.861389,348.179840 245.006241,347.849060 248.623749,348.212921   C261.072571,349.465149 273.877106,351.468781 281.780701,337.767822   C287.130035,328.494690 295.440857,326.115051 305.350952,328.839844   C308.792664,329.786163 311.489807,329.023132 314.212921,327.126862   C321.100220,322.330841 326.566986,316.008148 332.497589,310.185425   C333.075073,309.618439 333.450317,308.812805 332.956238,307.742493   C327.953644,306.478943 324.692932,311.058044 319.545563,312.200623   C321.349884,309.238647 316.577423,306.382568 320.797333,304.401581   C315.632202,303.388245 311.079071,305.596313 306.529816,307.187042   C305.811737,305.064880 308.219269,305.144257 307.803619,303.725800   C305.392700,302.227936 303.064178,300.810791 300.130096,302.714417   C298.586243,303.716034 297.332672,302.378937 295.384949,301.411560  M249.672195,402.644531   C266.015137,402.993835 282.266174,401.719055 298.447205,399.607910   C322.019257,396.532501 344.917847,391.070709 365.954987,379.472290   C377.553864,373.077423 388.480011,365.771820 396.471832,354.925629   C400.269836,349.771088 403.411133,344.140228 402.578857,337.420685   C401.711639,330.418427 399.394287,324.066742 392.614532,320.066284   C392.302216,320.953247 392.103271,321.258850 392.109222,321.560364   C392.118958,322.051880 392.166901,322.583344 392.363434,323.024506   C398.445404,336.677094 393.508484,347.466553 383.757080,357.198334   C370.750092,370.179230 354.576172,377.713196 337.482971,382.943298   C289.522949,397.617889 240.995560,399.623871 192.222672,387.047546   C173.554276,382.233826 155.773224,375.215973 140.843826,362.467804   C127.205566,350.822113 117.472046,337.580841 123.368179,318.183167   C123.877449,316.507782 123.869545,314.846161 121.848282,314.024384   C118.632355,316.079498 117.943817,316.846191 116.430084,320.728668   C111.228638,334.069611 115.479424,345.483429 123.780815,356.002502   C134.155365,369.148560 147.764343,377.994507 162.781845,384.835022   C190.065704,397.262848 219.130768,401.243713 249.672195,402.644531  M121.227890,198.807938   C117.259277,210.079880 115.208542,221.874100 111.517975,233.270248   C107.229012,246.514206 108.783348,260.357239 113.032310,273.540771   C123.583969,306.279968 142.491608,332.917542 171.519653,351.962158   C178.060318,356.253357 184.773911,360.097107 192.387695,362.082886   C186.880524,358.646729 181.027512,355.815430 175.621994,352.296753   C147.154190,333.765747 126.873657,309.686157 121.228996,274.794678   C118.023140,254.978287 115.641075,235.343735 118.661171,215.359970   C119.750412,208.152527 121.853348,201.158157 123.009537,193.936676   C122.478989,195.324081 121.948433,196.711472 121.227890,198.807938  M142.107330,440.393250   C151.747513,448.824158 162.878464,446.291504 175.210770,445.647369   C171.728455,442.114441 167.607651,442.065948 165.823746,438.832794   C167.556808,437.549896 168.947815,439.687714 170.794510,438.790741   C162.865860,434.635468 155.447922,430.243988 148.668961,424.822784   C145.904053,422.611603 144.099045,418.118164 141.687378,417.477112   C136.068619,415.983490 133.536331,411.587189 129.785812,408.328247   C128.886993,407.547211 128.292511,406.309296 126.539230,406.110657   C130.346222,415.933472 138.939240,422.076996 142.761795,431.362183   C132.412018,421.863190 123.612907,410.795135 111.378014,401.848297   C115.845421,409.711334 122.214569,414.940338 125.866951,421.989990   C125.537338,422.263092 125.207733,422.536194 124.878128,422.809296   C122.411110,420.821075 119.944092,418.832855 117.477074,416.844635   C124.500610,425.661469 132.992386,432.838074 142.107330,440.393250  M384.152954,410.674652   C371.089355,423.380768 355.256287,432.078979 338.996826,441.198608   C341.564880,441.682770 342.932037,439.447662 344.814636,440.457123   C344.910706,442.960358 341.323975,442.360992 341.327057,444.994659   C342.058441,445.262970 342.796234,445.732727 343.562439,445.784851   C354.735504,446.544800 365.947052,447.468323 374.505676,437.863678   C375.704193,436.518677 377.381744,435.611481 378.770081,434.422821   C387.934967,426.575897 397.907959,419.392578 401.343628,406.990631   C391.363983,414.118591 382.963684,423.382446 373.268738,431.188446   C378.495026,421.432465 387.198792,414.237091 392.133057,404.353241   C390.987946,404.615204 390.069916,405.048553 389.343719,405.696869   C387.733032,407.134888 386.218597,408.680695 384.152954,410.674652  M149.353821,292.157654   C153.035110,299.596558 157.051224,306.787506 164.191422,311.772491   C156.937500,299.970032 152.733810,286.857361 148.232666,272.959351   C144.522522,278.634460 144.714966,280.652191 149.353821,292.157654  M296.918304,418.381805   C294.917267,418.717712 293.658600,419.990753 292.974884,421.780731   C290.431671,428.438965 290.168854,435.426819 289.993927,442.479553   C294.745728,434.287598 291.318207,421.990784 304.028717,417.599121   C301.101501,417.079163 299.399506,417.823608 296.918304,418.381805  M221.133194,430.617920   C222.206192,433.807220 222.324112,437.323883 224.329727,440.574677   C227.030502,426.195953 221.488419,418.160156 208.354355,417.505798   C215.831299,418.408783 219.369980,423.150055 221.133194,430.617920  M258.737701,440.507202   C260.395569,440.751221 261.644958,439.971283 262.623352,438.782654   C264.173157,436.899872 264.317932,434.838226 262.790192,432.900238   C261.373779,431.103485 259.400818,430.817078 257.445648,431.818176   C255.403412,432.863892 254.991211,434.797241 255.392883,436.924530   C255.688919,438.492371 256.636475,439.585175 258.737701,440.507202  M335.656921,368.949188   C341.552002,365.368530 348.009491,362.570007 352.562195,357.113342   C345.726501,361.780975 338.348206,365.542633 331.016846,369.985199   C332.850006,370.710419 333.859924,369.581665 335.656921,368.949188  M138.435303,304.635925   C142.756531,311.654419 147.366653,318.434387 154.050690,323.507019   C147.965622,317.062256 143.163025,309.602692 137.483536,302.819611   C137.697998,303.258057 137.912460,303.696503 138.435303,304.635925  z"/>
<path fill="black" opacity="1.000000" stroke="none" d=" M312.552551,311.895264   C310.486633,312.988525 309.028748,314.706635 306.186096,314.683319   C308.289917,311.177765 311.172638,309.725281 314.551300,308.464966   C314.996094,310.331299 313.643616,310.875519 312.552551,311.895264  z"/>
</svg>