<svg xmlns="http://www.w3.org/2000/svg" version="1.0" width="1722.000000pt" height="1160.000000pt" viewBox="0 0 1722.000000 1160.000000" preserveAspectRatio="xMidYMid meet">

<g transform="translate(0.000000,1160.000000) scale(0.100000,-0.100000)" fill="transparent" stroke="none">
<path fill="#000000" d="M0 5800 l0 -5800 8610 0 8610 0 0 5800 0 5800 -8610 0 -8610 0 0 -5800z m8840 3480 c285 -60 505 -173 710 -364 311 -290 364 -354 466 -557 18 -36 39 -71 46 -76 9 -8 48 -5 128 7 309 49 585 51 754 5 108 -30 125 -36 183 -74 79 -51 106 -90 111 -161 5 -64 -11 -104 -83 -205 -115 -163 -415 -369 -820 -565 -110 -53 -205 -103 -211 -111 -6 -8 -14 -30 -18 -49 -10 -56 -70 -202 -127 -306 -148 -275 -408 -517 -714 -664 -130 -63 -167 -77 -290 -109 -425 -112 -896 -66 -1255 122 -80 41 -273 166 -290 186 -3 3 -36 32 -73 65 -67 57 -85 87 -30 48 50 -35 92 -52 176 -73 155 -39 464 -43 662 -9 60 11 162 37 365 95 49 14 212 73 275 100 75 32 280 137 323 166 24 16 45 29 47 29 23 0 287 197 395 294 55 49 177 194 207 245 14 25 33 52 40 59 7 7 13 14 13 15 0 1 -4 27 -9 58 -10 58 -50 117 -76 111 -8 -1 -16 2 -20 8 -5 8 -11 8 -20 0 -21 -17 -53 -3 -71 31 -14 28 -14 30 3 27 26 -4 23 24 -4 37 -17 9 -20 14 -11 23 9 9 8 12 -6 12 -10 0 -21 12 -27 30 -13 37 -76 59 -116 41 -29 -13 -43 -14 -23 -1 13 8 13 13 2 31 -12 19 -11 20 7 14 22 -7 30 10 9 18 -8 3 -6 6 5 6 9 1 17 8 17 16 0 8 9 24 20 35 11 11 20 23 20 27 0 3 7 15 17 25 9 10 14 20 11 23 -3 3 -43 -39 -89 -92 -99 -116 -106 -123 -279 -274 -37 -32 -168 -129 -175 -129 -3 0 -52 -31 -108 -70 -213 -145 -559 -295 -817 -354 -154 -36 -210 -41 -420 -41 -174 0 -230 4 -294 19 -110 25 -223 75 -303 133 -37 26 -73 52 -80 56 -8 5 -57 2 -111 -7 -234 -36 -276 -40 -512 -39 -258 0 -320 7 -441 52 -164 62 -241 173 -195 282 43 103 180 232 352 334 211 125 610 294 742 314 l42 6 48 111 c81 187 190 350 337 503 284 295 610 464 1019 526 138 21 431 13 566 -15z m-2165 -495 c0 -23 -29 -33 -100 -34 -44 -1 -279 -27 -465 -51 -87 -11 -276 -45 -430 -77 -69 -14 -143 -29 -165 -33 -82 -17 -458 -113 -505 -129 -84 -29 -171 -51 -180 -46 -27 17 -3 35 88 65 255 85 698 187 1077 250 181 30 621 80 665 76 8 -1 15 -10 15 -21z m3920 -5 c33 -5 103 -14 155 -20 353 -43 812 -129 1145 -214 479 -123 774 -239 1010 -397 185 -124 288 -238 327 -361 48 -156 0 -290 -159 -444 -297 -288 -916 -501 -1903 -656 -123 -19 -185 -27 -375 -47 -104 -12 -223 -26 -263 -31 -140 -19 -237 -10 -206 20 8 8 130 23 399 51 55 5 156 17 225 25 320 37 782 124 1055 198 50 14 124 34 165 45 101 27 300 98 398 142 230 103 365 189 483 308 113 114 144 175 143 283 -1 68 -5 87 -37 151 -102 206 -437 410 -952 578 -122 40 -492 134 -645 164 -47 9 -103 21 -125 26 -98 22 -461 84 -590 100 -224 28 -424 49 -460 49 -47 0 -82 20 -70 40 8 13 157 8 280 -10z m-6118 -372 c74 -27 162 -113 181 -175 39 -135 -10 -268 -133 -358 -89 -65 -243 -58 -349 14 -54 37 -106 101 -106 130 0 17 -6 21 -31 21 -47 0 -157 -116 -206 -218 -34 -70 -38 -84 -38 -162 0 -75 4 -92 30 -144 55 -108 214 -244 390 -334 284 -144 720 -284 1115 -358 326 -61 563 -98 795 -124 55 -6 136 -15 180 -20 44 -5 141 -14 215 -20 145 -12 180 -21 180 -45 0 -21 -60 -20 -340 10 -330 35 -379 41 -680 91 -582 95 -911 179 -1255 318 -436 177 -667 382 -683 607 -5 74 9 140 41 199 55 100 160 209 223 232 19 6 35 14 35 18 1 3 3 26 4 52 3 56 18 97 57 154 30 45 105 105 153 122 53 19 159 14 222 -10z m4966 -682 c12 -9 14 -16 8 -21 -6 -3 -11 -1 -11 4 0 6 -7 11 -15 11 -8 0 -15 5 -15 10 0 14 11 12 33 -4z m-177 -333 c5 -19 2 -30 -11 -39 -20 -15 -30 -11 -45 16 -7 14 -6 23 6 34 23 24 43 19 50 -11z m179 -243 c0 -32 -2 -35 -30 -35 -24 0 -31 5 -33 23 -5 30 16 54 42 50 17 -2 21 -10 21 -38z m-941 -128 c10 -16 -25 -52 -50 -52 -26 0 -40 20 -30 45 6 16 71 21 80 7z m314 -74 c-2 -13 -10 -23 -18 -23 -8 0 -16 10 -18 23 -3 17 2 22 18 22 16 0 21 -5 18 -22z m-950 -156 c2 -7 -3 -12 -12 -12 -9 0 -16 7 -16 16 0 17 22 14 28 -4z m-300 -14 c-2 -15 -11 -24 -25 -26 -19 -3 -23 1 -23 22 0 21 5 26 26 26 21 0 25 -4 22 -22z m1287 -49 c0 -15 -7 -25 -18 -27 -22 -4 -33 24 -17 43 18 21 35 13 35 -16z m-587 -163 c-4 -43 -42 -49 -60 -11 -10 23 -10 29 5 40 10 7 27 11 38 8 16 -4 19 -13 17 -37z m-613 -6 c8 -26 -1 -40 -26 -40 -25 0 -35 25 -19 45 17 21 37 19 45 -5z m-5539 -1091 c122 -21 217 -60 314 -128 77 -53 160 -129 160 -146 0 -10 -101 -97 -189 -162 -14 -11 -26 -4 -76 43 -93 88 -202 134 -314 134 -170 0 -323 -96 -398 -248 -37 -74 -38 -79 -38 -181 1 -94 4 -113 28 -165 38 -81 131 -175 214 -217 65 -33 70 -34 188 -34 116 0 122 1 183 33 35 18 93 60 128 93 40 37 69 57 77 53 6 -4 37 -26 67 -49 30 -23 72 -54 93 -69 44 -32 44 -33 -43 -122 -111 -113 -217 -171 -365 -200 -234 -46 -471 29 -645 205 -81 82 -143 185 -176 296 -22 75 -25 289 -5 350 76 228 251 410 459 479 143 48 223 56 338 35z m1499 -22 c115 -38 198 -90 296 -187 147 -145 206 -300 196 -515 -10 -206 -92 -367 -254 -496 -132 -105 -282 -159 -439 -159 -196 0 -344 62 -512 214 -42 38 -115 147 -146 218 -54 123 -72 304 -41 423 48 184 223 386 407 470 154 71 337 82 493 32z m1318 17 c108 -28 227 -98 300 -177 15 -17 24 -34 20 -37 -54 -49 -195 -170 -198 -170 -3 0 -29 22 -59 50 -67 60 -96 75 -166 88 -129 24 -250 -37 -250 -125 0 -89 64 -130 305 -195 193 -52 320 -131 372 -231 24 -46 27 -63 28 -152 0 -88 -3 -107 -27 -158 -16 -34 -51 -82 -85 -116 -163 -163 -441 -197 -682 -83 -65 31 -176 132 -209 190 l-23 41 100 66 c54 35 105 67 113 70 9 4 36 -19 72 -60 32 -36 76 -75 98 -86 51 -26 156 -35 231 -19 76 15 137 69 137 121 0 81 -77 135 -264 184 -136 36 -196 60 -265 106 -71 48 -113 93 -143 157 -19 39 -23 64 -23 147 0 93 2 105 33 167 51 104 159 185 298 223 68 19 214 18 287 -1z m3037 0 c107 -20 173 -45 250 -95 156 -101 264 -243 316 -415 25 -81 25 -266 1 -349 -73 -246 -285 -444 -536 -501 -138 -31 -317 -8 -448 58 -397 198 -516 692 -251 1036 48 62 169 162 239 197 155 79 276 98 429 69z m3902 1 c104 -22 206 -74 280 -146 l63 -60 -31 -27 c-57 -50 -165 -137 -175 -140 -5 -2 -34 19 -65 47 -60 55 -125 81 -203 81 -141 0 -233 -91 -188 -186 21 -43 75 -77 162 -104 275 -82 312 -97 402 -170 99 -80 143 -194 122 -322 -39 -242 -325 -393 -632 -334 -119 23 -213 72 -294 152 -71 72 -99 114 -91 136 3 7 54 42 113 78 l108 65 16 -25 c55 -84 118 -131 209 -154 76 -20 100 -20 170 0 72 21 122 68 122 114 0 63 -26 98 -104 134 -39 19 -87 37 -106 41 -71 15 -197 58 -265 92 -164 81 -242 227 -215 400 13 82 46 142 112 205 121 115 304 161 490 123z m1849 4 c219 -29 438 -182 537 -375 51 -101 67 -172 67 -309 0 -117 -3 -139 -29 -219 -35 -107 -103 -213 -184 -287 -144 -132 -286 -188 -477 -188 -211 0 -372 71 -522 232 -74 79 -109 137 -140 228 -83 247 -33 499 134 679 118 128 256 207 407 235 93 17 107 17 207 4z m-8002 -26 l92 -6 133 -201 c73 -111 165 -252 205 -313 40 -62 76 -113 80 -113 3 0 33 44 65 98 82 135 335 515 352 528 8 7 67 10 156 10 l143 -1 3 -335 c2 -184 0 -485 -4 -668 l-6 -333 -132 3 -131 3 -3 420 c-1 230 -6 423 -11 428 -4 4 -39 -41 -77 -100 -74 -118 -283 -428 -322 -480 -13 -18 -30 -33 -38 -33 -11 0 -325 458 -391 573 -12 20 -27 37 -33 37 -7 0 -10 -137 -10 -419 0 -373 -2 -420 -16 -425 -20 -8 -228 -8 -248 0 -14 6 -16 73 -16 663 0 362 3 661 7 664 8 9 84 9 202 0z m3978 -7 c6 -6 4 -226 -2 -235 -4 -8 -111 -11 -326 -11 -230 0 -319 -3 -319 -11 0 -6 -1 -75 -2 -153 l-3 -141 300 -8 c219 -5 301 -11 307 -20 4 -6 7 -59 6 -117 l-3 -105 -307 -3 -308 -2 -2 -258 -3 -257 -119 -3 c-65 -1 -123 2 -130 7 -12 10 -17 1297 -4 1316 5 9 907 10 915 1z m470 5 c9 -1 13 -110 15 -433 l4 -433 29 -54 c50 -92 162 -161 260 -161 100 0 203 69 252 168 l28 57 3 425 c2 318 6 426 15 432 16 10 239 10 255 -1 11 -6 13 -88 10 -427 -4 -393 -5 -424 -26 -497 -30 -110 -66 -171 -147 -253 -108 -109 -241 -164 -395 -165 -230 0 -407 107 -506 307 -57 113 -63 183 -56 640 4 350 7 393 21 396 14 3 205 2 238 -1z m2561 -663 l2 -668 -128 0 -129 0 -6 248 c-4 136 -7 435 -7 664 l0 417 48 4 c26 2 85 3 132 3 l85 -1 3 -667z m2055 662 c6 -7 371 -499 444 -598 34 -46 81 -112 105 -147 24 -35 46 -65 51 -65 4 0 7 182 7 404 0 359 2 405 16 410 23 9 227 7 242 -2 10 -7 12 -147 10 -668 l-3 -659 -105 -3 -106 -3 -144 192 c-155 204 -403 546 -448 616 -15 24 -31 43 -37 43 -7 0 -9 -146 -7 -425 l3 -425 -130 0 c-108 0 -130 3 -135 16 -3 9 -6 307 -6 664 0 509 3 649 13 653 15 7 224 4 230 -3z m-4933 -2006 c124 -29 273 -121 359 -221 49 -58 106 -168 126 -243 20 -76 20 -256 -1 -328 -67 -235 -278 -430 -511 -473 -73 -14 -263 -5 -326 15 -69 22 -173 79 -240 131 -101 80 -201 239 -232 372 -63 261 98 567 366 696 130 63 320 84 459 51z m-2563 -19 c174 -41 337 -164 408 -309 38 -75 75 -228 75 -308 0 -109 -44 -251 -109 -351 -76 -116 -178 -194 -311 -239 -62 -21 -81 -22 -374 -20 -170 1 -310 3 -312 5 -3 2 -6 1138 -4 1225 0 19 543 17 627 -3z m1243 -62 c18 -43 46 -109 63 -148 16 -38 74 -176 127 -305 184 -443 231 -553 266 -622 19 -38 32 -73 29 -78 -4 -6 -62 -10 -129 -10 -96 0 -126 3 -136 15 -6 8 -33 65 -60 127 l-47 113 -255 3 -255 2 -55 -127 -54 -128 -132 -3 c-84 -2 -132 1 -132 7 0 6 15 43 34 83 19 40 46 102 61 138 15 36 35 83 45 106 11 22 55 128 99 235 44 107 108 257 142 334 34 77 76 175 95 218 56 128 40 117 158 117 l104 0 32 -77z m3160 -449 c223 -8 536 -19 695 -25 481 -17 479 -24 -10 -32 -247 -3 -704 -12 -1013 -18 -310 -6 -570 -8 -578 -5 -15 6 -20 86 -6 100 8 9 291 3 912 -20z m-5470 -35 l0 -51 -472 7 c-260 3 -612 10 -783 16 -170 5 -376 9 -457 9 -81 0 -149 4 -152 9 -7 11 94 21 218 21 56 0 218 5 361 10 375 16 775 27 1048 28 l237 2 0 -51z"/>
<path fill="#000000" d="M8360 8915 c-484 -71 -873 -378 -1014 -799 -45 -134 -57 -203 -57 -327 0 -91 4 -128 20 -168 65 -172 197 -283 386 -327 113 -26 343 -25 480 3 569 117 1055 478 1184 878 11 34 15 86 15 165 0 106 -3 120 -31 180 -38 83 -135 196 -216 253 -64 45 -151 87 -234 113 -136 42 -364 54 -533 29z m637 -266 c157 -21 161 -29 16 -35 -154 -7 -418 -58 -713 -138 -272 -73 -539 -181 -802 -325 -54 -29 -98 -49 -98 -44 0 16 83 90 142 127 302 191 729 344 1168 419 51 9 212 7 287 -4z"/>
<path fill="#000000" d="M10125 8261 c-49 -7 -49 -16 -10 -141 54 -175 77 -448 56 -664 -6 -65 -9 -121 -6 -124 7 -7 205 93 316 160 46 28 93 56 104 62 66 37 217 149 280 208 54 51 83 88 107 136 88 179 -7 278 -342 353 -58 13 -436 21 -505 10z"/>
<path fill="#000000" d="M6710 8051 c-275 -101 -475 -214 -597 -338 -99 -100 -142 -207 -109 -271 35 -69 120 -109 286 -137 150 -26 580 -15 613 14 4 4 -8 41 -26 82 -19 41 -40 103 -48 139 -20 91 -17 341 4 449 9 46 17 87 17 92 0 16 -33 9 -140 -30z"/>
<path fill="#000000" d="M9660 7680 c-12 -8 -10 -10 8 -10 13 0 20 4 17 10 -7 12 -6 12 -25 0z"/>
<path fill="#000000" d="M9842 7468 c-14 -14 -16 -38 -3 -38 10 0 26 39 19 46 -2 2 -10 -2 -16 -8z"/>
<path fill="#000000" d="M3272 5186 c-190 -71 -292 -217 -292 -416 1 -164 120 -327 287 -393 54 -21 218 -26 266 -8 153 58 252 157 292 289 19 62 19 181 -1 248 -29 100 -124 213 -222 263 -90 47 -230 54 -330 17z"/>
<path fill="#000000" d="M7727 5190 c-118 -37 -207 -114 -259 -225 -31 -66 -33 -76 -33 -180 0 -102 2 -115 31 -175 78 -164 213 -250 392 -250 141 0 216 33 314 137 93 100 129 216 109 349 -13 88 -45 154 -110 226 -107 119 -287 167 -444 118z"/>
<path fill="#000000" d="M13494 5187 c-84 -32 -125 -59 -182 -122 -82 -89 -125 -244 -102 -365 25 -133 114 -244 249 -311 62 -32 72 -34 172 -34 101 0 108 1 180 37 93 46 170 121 212 208 31 62 32 70 32 185 0 113 -2 123 -30 180 -40 81 -127 165 -212 206 -60 29 -80 33 -163 36 -80 3 -105 -1 -156 -20z"/>
<path fill="#000000" d="M9590 3203 c-59 -12 -149 -63 -197 -111 -225 -225 -121 -582 197 -678 192 -58 427 68 486 261 35 115 24 236 -32 331 -35 61 -117 137 -182 169 -48 24 -72 29 -152 31 -52 1 -106 0 -120 -3z"/>
<path fill="#000000" d="M6920 2817 l0 -387 24 -6 c14 -3 89 -4 168 -2 172 4 209 17 297 105 67 67 89 120 98 233 10 142 -25 249 -112 336 -77 77 -133 95 -322 102 l-153 5 0 -386z"/>
<path fill="#000000" d="M8317 2886 c-37 -91 -67 -172 -67 -180 0 -12 24 -15 141 -18 92 -2 143 1 146 8 7 18 -127 346 -144 351 -5 2 -39 -71 -76 -161z"/>
</g>
</svg> 